<svg xmlns="http://www.w3.org/2000/svg" viewBox="0 0 89.76 89.76"><defs><style>.cls-1{fill:#fff;}.cls-2{fill:#6a453b;}</style></defs><title>자산 1</title><g id="레이어_2" data-name="레이어 2"><g id="Layer_1" data-name="Layer 1"><circle class="cls-1" cx="47.5" cy="45" r="37.5"/><path class="cls-2" d="M58.26,23.88H31.5a7.75,7.75,0,0,0-7.74,7.74V58.38a7.75,7.75,0,0,0,7.74,7.75H58.26A7.75,7.75,0,0,0,66,58.38V31.62A7.75,7.75,0,0,0,58.26,23.88Zm-13.38,35A13.91,13.91,0,1,1,58.79,45,13.92,13.92,0,0,1,44.88,58.91ZM59.23,34a3.29,3.29,0,1,1,3.29-3.29A3.29,3.29,0,0,1,59.23,34Z"/><path class="cls-2" d="M44.88,37a8,8,0,1,0,8,8A8,8,0,0,0,44.88,37Z"/><path class="cls-2" d="M44.88,0A44.88,44.88,0,1,0,89.76,44.88,44.88,44.88,0,0,0,44.88,0Zm27,58.38A13.63,13.63,0,0,1,58.26,72H31.5A13.63,13.63,0,0,1,17.88,58.38V31.62A13.64,13.64,0,0,1,31.5,18H58.25A13.63,13.63,0,0,1,71.88,31.62Z"/></g></g></svg>